<?xml version="1.0" encoding="UTF-8" standalone="no"?>
<!DOCTYPE svg PUBLIC "-//W3C//DTD SVG 1.1//EN" "http://www.w3.org/Graphics/SVG/1.1/DTD/svg11.dtd">
<svg xmlns="http://www.w3.org/2000/svg">
<metadata>Generated by Fontastic.me</metadata>
<defs>
<font id="ayuntamiento-madrid" horiz-adv-x="512">
<font-face font-family="ayuntamiento-madrid" units-per-em="512" ascent="480" descent="-32"/>
<missing-glyph horiz-adv-x="512"/>

<glyph unicode="X" d="M190 162c-2-2-4-2-6-2-2 0-4 0-6 2 0 0-79 87-80 88-1 1-2 3-2 6 0 3 1 5 2 6 1 1 80 88 80 88 3 3 9 3 12 0 3-3 3-9 0-12l-67-74 285 0c4 0 8-4 8-8 0-4-4-8-8-8l-285 0 67-74c3-3 3-9 0-12z"/>
<glyph unicode="a" d="M13 486l0-101 486 0 0 101z m0-281l486 0 0 102-486 0z m0-179l486 0 0 102-486 0z"/>
<glyph unicode="b" d="M477 90l-112 113c-2 1-3 2-4 3 19 29 30 64 30 102 0 102-84 186-187 186-102 0-186-84-186-186 0-103 84-187 186-187 38 0 73 11 102 31 1-2 2-3 3-5l113-112c7-8 17-12 27-12 10 0 21 4 28 12 15 15 15 40 0 55m-273 90c-70 0-127 57-127 128 0 70 57 127 127 127 71 0 128-57 128-127 0-71-57-128-128-128"/>
<glyph unicode="c" d="M501 477l-13 13-231-223-231 223-13-13 231-222-231-222 13-13 231 222 231-222 13 13-231 222z"/>
<glyph unicode="d" d="M395 278l-224 224c-13 13-34 13-46 0-13-12-13-33 0-45l201-202-201-201c-13-12-13-33 0-46 6-6 14-9 23-9 8 0 16 3 23 9l224 224c12 13 12 34 0 46z"/>
<glyph unicode="e" d="M125 232l224-224c12-12 33-12 46 0 12 13 12 34 0 46l-201 201 201 201c12 13 12 34 0 46-7 7-15 10-23 10-9 0-17-3-23-10l-224-224c-13-12-13-33 0-46z"/>
<glyph unicode="f" d="M176 334l245 0-44-115-161 0z m179-165l-129 0-77 218-42 0c-9 0-16 6-16 15 0 8 7 15 16 15l63 0 78-217 107 0c8 0 15-7 15-15 0-9-7-16-15-16z m6-25c12 0 22-11 22-25 0-13-10-24-22-24-12 0-22 11-22 24 0 14 10 25 22 25z m-128 0c12 0 22-11 22-25 0-13-10-24-22-24-13 0-23 11-23 24 0 14 10 25 23 25z"/>
<glyph unicode="g" d="M221 398c-15 0-26-11-26-26 0-14 11-26 26-26 14 0 26 12 26 26 0 15-12 26-26 26z m0-40c-9 0-15 6-15 14 0 9 6 15 15 15 8 0 14-6 14-15 0-8-6-14-14-14z m124 44c-14 0-25-12-25-26 0-15 11-26 25-26 15 0 26 11 26 26 0 14-11 26-26 26z m0-41c-8 0-14 7-14 15 0 8 6 14 14 14 9 0 15-6 15-14 0-8-6-15-15-15z m0 79c-31 0-57-22-62-52-7 28-32 49-62 49-36 0-65-29-65-65 0-28 19-53 45-61l0-27-99 22 0-97 99 11 0-33 80 0 0-93-60 0 0-22 150 0 0 22-63 0 0 93 72 0 0 135c18 11 30 31 30 54 0 35-29 64-65 64z m-108-118l-33 0c-21 7-36 27-36 50 0 30 23 54 53 54 29 0 52-24 52-54 0-23-15-43-36-50z m23 0c12 9 21 23 23 38 4-16 14-29 27-38z m85 0c-29 0-52 24-52 54 0 29 23 53 52 53 30 0 53-24 53-53 0-30-23-54-53-54z"/>
<glyph unicode="h" d="M378 220c20 0 37-17 37-37 0-20-17-37-37-37-21 0-37 17-37 37 0 20 16 37 37 37z m-238 58l57 57 28 0-43-79 0-84-85 0 0-29 114 0 0 85 57-48 0-93 28 0 0 113-57 50 14 34 15-14 85 0 0 28-71 0 0 71-100 0-56-77z m184 119c0 15-12 28-28 28-16 0-28-13-28-28 0-16 12-28 28-28 16 0 28 12 28 28"/>
<glyph unicode="i" d="M159 230l0-128 58 0 0 127-29 24z m-97-128l58 0 0 96-58-47z m292 156l0-156 58 0 0 205z m-97-62l0-94 58 0 0 123-47-39z m194 214l-112 0 47-46-118-98-80 66-127-102 0-44 127 102 80-66 143 119 40-38z"/>
<glyph unicode="j" d="M416 280c7 0 12-5 12-12l0-155c0-6-5-12-12-12-7 0-13 6-13 12l0 155c0 7 6 12 13 12z m-275-73l115-57 115 57 0-65-115-65-115 57z m-131 106l246-130 246 130-246 122z"/>
<glyph unicode="k" d="M377 430c-5 4-12 3-16-2l-34-45c-4-5-3-13 2-16 5-4 12-3 16 2l34 45c4 5 3 12-2 16z m-242 0c5 4 12 3 16-2l34-45c4-5 3-13-2-16-5-4-12-3-16 2l-34 45c-4 5-3 12 2 16z m241-106c0 7 5 12 11 12l57 0c7 0 12-5 12-12 0-6-5-11-12-11l-57 0c-6 0-11 5-11 11z m-320 0c0 7 5 12 12 12l57 0c6 0 11-5 11-12 0-6-5-11-11-11l-57 0c-7 0-12 5-12 11z m194 137c7 0 12-5 12-12l0-56c0-7-5-12-12-12-6 0-11 5-11 12l0 56c0 7 5 12 11 12z m-148-364l308 0 23-46-354 0z m149 223c1 0 0-170 0-170l-82 0 0 86c0 46 40 84 82 84z m5 18c55 0 99-45 99-100l0-103-198 0 0 103c0 55 44 100 99 100m0 20c-66 0-120-54-120-120l0-123 240 0 0 123c0 66-54 120-120 120z"/>
<glyph unicode="l" d="M278 144l24 0 144 224-24 0z m102 84c-10-10-15-21-15-35 0-13 5-25 15-34 9-9 21-14 34-14 14 0 25 5 35 14 9 10 14 21 14 34 0 13-5 25-14 34-10 10-21 15-35 15-13 0-25-5-34-14z m52-17c5-5 7-11 7-18 0-7-2-13-7-18-5-5-11-7-18-7-7 0-13 2-18 7-4 5-7 11-7 18 0 7 3 13 7 18 5 5 11 7 18 7 7 0 13-2 18-7z m-155 142c-10-10-15-21-15-34 0-14 5-25 15-35 9-9 21-14 34-14 13 0 25 5 34 14 10 10 15 21 15 35 0 13-5 24-15 34-9 10-20 14-34 14-13 0-25-4-34-14z m52-17c4-5 7-10 7-18 0-6-3-12-7-17-5-5-11-7-18-7-7 0-13 2-18 7-5 5-8 11-8 17 0 7 3 13 8 18 5 5 11 8 18 8 7 0 13-3 18-8z m-164 3c15 0 32-4 50-12l6 30c-20 7-38 11-55 11-22 0-41-7-57-21-16-15-27-34-34-58l-22 0-4-24 23 0c0-4 0-10 0-18l-18 0-5-24 25 0c6-25 16-44 32-58 15-14 35-21 59-21 22 0 40 5 55 16l0 34c-17-14-35-21-54-21-30 0-50 16-59 50l81 0 4 24-89 0c0 4 0 7 0 10 0 3 0 5 0 8l92 0 5 24-93 0c10 33 29 50 58 50z"/>
<glyph unicode="m" d="M288 171l-16 13 58 69 16-14z m-45 49l-57 68 15 13 58-68z m-12 75l21 0 0-244-21 0z m-29-127c-42 4-120 34-115 118 5 66 42 82 59 86 5 23 26 89 105 89 79 0 100-65 105-89 20-3 65-18 69-86 4-74-61-111-84-118l-6 20c1 0 73 25 69 96-3 68-54 69-57 69l-9 0-1 9c0 3-9 78-86 78-77 0-85-75-86-78l-1-9-9 0c-2 0-43-2-47-69-6-85 92-96 96-96z"/>
<glyph unicode="n" d="M370 440c-42 0-109 0-109 0 0 0-76 0-109 0-32 0-44-48-44-48 0 0 0-238 0-258 0-20 34-23 34-23 0 0-9-38 24-38 33 0 25 40 25 40l140 0c0 0-5-40 23-40 29 0 22 38 22 38 0 0 29 4 29 23 0 25 0 258 0 258 0 0-3 48-35 48z m-211-32c0 4 8 12 13 12l178 0c4 0 4-8 4-12l0-8c0-5 0-1-4-1l-178 0c-5 0-13-4-13 1l0 8z m13-266c-17 0-31 14-31 31 0 17 14 31 31 31 17 0 31-14 31-31 0-17-14-31-31-31z m-16 94c-8 0-17 7-17 15l0 110c0 8 9 18 17 18l210 0c8 0 8-10 8-18l0-110c0-8 0-15-8-15l-210 0z m194-94c-17 0-31 14-31 31 0 17 14 31 31 31 17 0 31-14 31-31 0-17-14-31-31-31z"/>
<glyph unicode="o" d="M284 133c1 0 62 147 134 196 2 2-16 30-36 51-23 26-54 39-54 40-41-66-196-137-196-137 7-80-60-206-60-206l162 163c0 0-8 14-1 23 6 8 13 13 25 11 11-2 22-17 13-31-11-20-32-8-32-8l-163-163c0 0 119 66 208 61z m54 305c2 3 7 4 14 0 8-4 35-24 49-37 14-13 37-46 39-53 1-5-2-9-4-9-4-2-10 3-13 11-5 10-20 28-32 41-17 19-49 37-52 38-2 1-4 6-1 9z"/>
<glyph unicode="p" d="M387 436c-1 18-16 32-35 32-20 0-36-15-36-34 0-20 16-35 36-35 13 0 24 6 30 16 13-10 20-26 21-46l-17-113 0-2c0-35-44-65-80-65-38 0-72 31-72 65l-16 115c0 21 8 37 21 46 7-12 19-20 33-20 21 0 38 17 38 37 0 21-17 38-38 38-19 0-34-14-37-33-23-12-37-37-37-69l16-114c0-46 43-85 91-86l1 0 0 0c1 0 1 0 1 0l0-68c0-23-45-48-75-48-37 0-87 24-88 48 0 63 0 138 0 171 24 4 41 24 41 48 0 26-21 48-48 48-26 0-48-22-48-48 0-22 15-40 35-46 0-33-1-109 0-173 0-41 65-68 108-68 37 0 95 29 95 68l0 71c40 9 79 42 80 83l16 113 0 1c0 31-13 55-36 68z m-278-117c0 15 13 27 28 27 15 0 28-12 28-27 0-15-13-28-28-28-15 0-28 13-28 28z"/>
<glyph unicode="q" d="M349 67l0 165c0 3 1 5 0 6-4 4-75 70-76 72-1 2-7 9-12 6-28-22-38-85-36-96 6-27 54-136 54-138 1-2 22-7 24-8 3-1-4-7-4-7-3-1-62-1-63 0-2 0-3 1-4 2-5 32-31 93-31 92 5-20-6-68-6-77 0-8 21-11 21-12 1-2-1-5-5-5-3 0-68 0-68 0 0 0 25 89 21 123-9 77-21 100 32 163 33 38 66 43 66 43 0 0-4 10-4 16 0 19 16 34 36 34 19 0 35-15 35-34 0-18-19-37-39-33-6 2-4-6-2-28 5-43 70-99 74-103 5-3 7-7 7-11-1-3-10-2-10-5l0-165c0 0-10-1-10 0z"/>
<glyph unicode="r" d="M441 74l-49 0c0 5-4 13-4 13l-11 19c21 24 1 49 1 49l-13 22-23 67 8 14c7 16-8 23-8 23l-10 0-10 5-5-1c-5-1-14 12-14 12l-7 0-8-15c-2-17 10-26 10-26-4-13-2-33-2-33-6-2-12 5-14 18-1 8-6 9-9 9l0 52c57 5 101 37 101 74 0 42-53 76-119 76-65 0-118-34-118-76 0-37 43-68 99-74l0-206c-2-21-20-23-20-23l-148 1-7 0 2-14 384 0 4 14z m-118 5c-3-1-4-4-5-6l-25 0c0 0-18 2-20 23l0 100 24-31 4 0c2-45 16-48 16-48-3-13 2-16 2-16l14-17z"/>
<glyph unicode="s" d="M6 229c0 0 91 25 132 75 21 25 67 56 117 56 50 0 98-30 119-56 37-45 132-75 132-75l0-77-182 0 0 56c0 0 1 66-68 66-70 0-69-67-69-67l0-55-181 0z"/>
<glyph unicode="u" d="M93 154c-7 0-11 4-13 7-5 6-2 14-2 15l46 153c1 3 4 6 8 6 23 3 42 7 53 13 13 6 25 10 37 10 15 0 27-5 35-14 8 9 20 14 35 14 11 0 24-4 37-10 11-6 29-10 53-13 4 0 7-3 8-6l44-148c0-2 3-12-3-20-4-5-10-8-19-6-21 4-43 8-58 16-16 8-31 12-45 12-13 0-24-4-29-12-1-2-4-4-8-4l-30 1c-3 0-5 2-7 4-11 15-34 14-76-1-18-7-39-12-59-16-3-1-5-1-7-1z m216 48c17 0 35-5 53-14 13-7 34-11 53-15 1 0 1 0 2 0 0 1-1 2-1 3l-42 142c-24 3-42 8-54 14-10 5-20 7-28 7-16 0-26-8-26-22 0-5-4-9-9-9-5 0-9 4-9 9 0 14-10 22-26 22-9 0-19-2-29-7-12-6-30-11-53-14l-43-145c19 3 39 9 56 15 23 9 42 13 57 13 16 0 28-5 37-15l21 0c9 10 23 16 41 16z m97-46c-1 0-2 0-3 1-25 10-46 20-65 30l-3 2c-17 10-34 19-52 18-3 0-15-2-20-4-1-1-4-2-6-2-5 0-9 4-9 9l0 107c0 5 4 9 9 9 5 0 9-4 9-9l0-94c4 1 10 2 16 2 24 1 44-10 62-20l3-2c18-9 38-19 63-29 5-2 7-8 5-12-2-4-5-6-9-6z"/>
<glyph unicode="v" d="M157 300l62-17c0 0 1 0 2 0 4 0 7 2 8 6 2 5-1 10-6 11l-61 17c-5 1-10-2-11-7-1-4 2-9 6-10z m0-44l62-17c0 0 1 0 2 0 4 0 7 3 8 6 2 5-1 10-6 11l-61 17c-5 1-10-2-11-7-1-4 2-9 6-10z m0-44l62-17c0 0 1 0 2 0 4 0 7 3 8 7 2 4-1 9-6 10l-61 17c-5 1-10-2-11-6-1-5 2-10 6-11z m236 174c-2 2-5 2-8 1l-129-34-129 34c-3 1-6 1-8-1-2-2-3-4-3-7l0-211c0-4 2-7 6-8l132-35c0-1 1-1 2-1 1 0 2 0 2 1l132 35c4 1 6 4 6 8l0 211c0 3-1 5-3 7z m-146-242l-114 31 0 193 114-31z m132 31l-114-31 0 193 114 31z m-88 108c1 0 2 0 2 0l62 17c5 1 7 6 6 10-1 5-6 8-11 7l-61-17c-5-1-8-6-6-11 1-4 4-6 8-6z m0-44c1 0 2 0 2 0l62 17c5 1 7 6 6 10-1 5-6 8-11 7l-61-17c-5-1-8-6-6-11 1-3 4-6 8-6z m0-44c1 0 2 0 2 0l62 17c5 1 7 6 6 11-1 4-6 7-11 6l-61-17c-5-1-8-6-6-10 1-4 4-7 8-7z"/>
<glyph unicode="w" d="M347 377l-182 0c-16 0-30-14-30-30l0-182c0-16 14-30 30-30l182 0c16 0 30 14 30 30l0 182c0 16-14 30-30 30z m15-212c0-8-7-15-15-15l-182 0c-8 0-15 7-15 15l0 182c0 8 7 15 15 15l182 0c8 0 15-7 15-15z m-129 83l-45 0c-8 0-15-6-15-15l0-45c0-8 7-15 15-15l45 0c9 0 15 7 15 15l0 45c0 9-6 15-15 15z m0-60l-45 0 0 45 45 0z m91 60l-45 0c-9 0-15-6-15-15l0-45c0-8 6-15 15-15l45 0c8 0 15 7 15 15l0 45c0 9-7 15-15 15z m0-60l-45 0 0 45 45 0z m-91 151l-45 0c-8 0-15-7-15-15l0-45c0-9 7-15 15-15l45 0c9 0 15 6 15 15l0 45c0 8-6 15-15 15z m0-60l-45 0 0 45 45 0z m91 60l-45 0c-9 0-15-7-15-15l0-45c0-9 6-15 15-15l45 0c8 0 15 6 15 15l0 45c0 8-7 15-15 15z m0-60l-45 0 0 45 45 0z"/>
<glyph unicode="x" d="M357 308l1 2-6 6-34 30-41 37-1-1c-4 2-8 3-12 3l-97 0c-8 0-16-7-16-16l0-226c0-9 8-16 16-16l178 0c8 0 16 7 16 16l0 153c0 4-2 9-4 12z m-77 51l52-47-52 0z m64-216l-177 0 0 226 97 0 0-65 8-8 73 0z"/>
<glyph unicode="y" d="M140 134l0 254-12 0 0-264 256 0 0 10z m56 24l7 0c12 0 22 10 22 21l0 183c0 12-10 21-22 21l-7 0c-12 0-22-9-22-21l0-183c0-11 10-21 22-21z m-8 204c0 4 4 7 8 7l7 0c4 0 7-3 7-7l0-183c0-4-3-7-7-7l-7 0c-4 0-8 3-8 7z m139-204l8 0c12 0 22 10 22 21l0 148c0 11-10 21-22 21l-8 0c-12 0-22-10-22-21l0-148c0-11 10-21 22-21z m-7 169c0 4 3 7 7 7l8 0c4 0 7-3 7-7l0-148c0-4-3-7-7-7l-8 0c-4 0-7 3-7 7z m-59-169l8 0c12 0 22 10 22 21l0 106c0 11-10 21-22 21l-8 0c-12 0-21-10-21-21l0-106c0-11 9-21 21-21z m-7 127c0 4 3 7 7 7l8 0c4 0 7-3 7-7l0-106c0-4-3-7-7-7l-8 0c-4 0-7 3-7 7z"/>
<glyph unicode="z" d="M357 386l-202 0c-18 0-34-15-34-33l0-194c0-18 16-33 34-33l202 0c18 0 34 15 34 33l0 194c0 18-16 33-34 33z m17-227c0-9-8-17-17-17l-202 0c-9 0-17 8-17 17l0 194c0 9 8 17 17 17l202 0c9 0 17-8 17-17z m-34 168l-143 0c-5 0-8-3-8-8 0-5 3-8 8-8l143 0c5 0 9 3 9 8 0 5-4 8-9 8z m0-42l-143 0c-5 0-8-3-8-8 0-5 3-8 8-8l143 0c5 0 9 3 9 8 0 5-4 8-9 8z m0-42l-143 0c-5 0-8-3-8-8 0-5 3-8 8-8l143 0c5 0 9 3 9 8 0 5-4 8-9 8z m0-42l-143 0c-5 0-8-3-8-8 0-5 3-8 8-8l143 0c5 0 9 3 9 8 0 5-4 8-9 8z m-177 110l17 0 0 16-17 0z m0-42l17 0 0 16-17 0z m0-42l17 0 0 16-17 0z m0-42l17 0 0 16-17 0z"/>
<glyph unicode="A" d="M419 235c-18-9-31-9-30-18 2-8 3-13 6-19 3-7 3-10-2-14-5-5-5-7 2-20 7-12 25-44 30-52 4-8 6-16-2-29-7-12-21-32-29-27-9 5-2 19 0 25 1 7 2 16-6 26-7 9-25 30-31 42-6 12-12 27-24 27-13 0-17-16-18-29-1-13-2-35-7-49-5-15-7-43-29-44-22-1-34-1-20 14 14 15 12 12 14 36 1 23 1 75 12 97 11 22 16 40 16 54 0 13-1 24-12 11-11-12-19-15-30-17-10-1-13-3-18-7-4-4-5-6 0-16 4-9 1-28-4-38-5-11-10-19-11-27 0-8 1-12-7-19-8-6-8-8-1-20 8-12 17-29 14-45-3-16-17-28-23-23-7 5 4 24-4 35-8 11-15 17-22 30-6 13-6 17-11 17-4 0-11-13-12-24 0-11-3-35-4-42-1-7 0-17-18-19-18-1-36 2-20 16 11 9 10 13 11 29 1 17-6 43-1 62 4 19 9 31 10 39 2 8-1 12-11 9-10-3-45-23-49-10-4 13 8 16 17 19 9 3 19 7 30 23 11 16 18 30 29 36 10 7 18 9 7 16-11 7-24 10-24 26-1 16-3 24 1 33 4 10 16 16 28 17 11 1 9 4 6 9-4 5-3 13 7 14 10 0 10-6 10-9 0-4 1-13 6-8 4 5 12 11 17 8 6-3 5-10-1-13-6-4-15-4-13-11 2-6 14-8 14-23 0-15 1-30-12-34-14-4-8-12 0-15 8-4 15-8 21-13 6-5 7-11 15-6 8 5 28 15 33 31 5 16 12 46 23 55 11 10 20 11 18 19 0 0-1 8-7 10-6 2-19 6-19 17-1 11-2 16-8 21-6 4-15 9-6 14 8 4 11 3 21 18 10 16 40 12 51 4 11-8 22-23 17-42-5-21-14-23-15-31-1-9 5-9 17-17 12-8 28-22 38-43 9-21 9-25 18-23 9 1 10-7 15-26 5-19 5-28-13-37z"/>
<glyph unicode="B" d="M353 376l-97 51-97-51-98-52 390 0z m-244-90l0-165c0-5 3-9 8-9l23 0c4 0 8 4 8 9l0 165c3-4 7-6 12-6 9 0 17 8 17 18 0 11-8 19-17 19l-64 0c-9 0-16-8-16-19 0-10 7-18 16-18 5 0 10 2 13 6z m136-174l22 0c5 0 8 4 8 9l0 165c3-4 8-6 13-6 9 0 17 8 17 18 0 11-8 19-17 19l-64 0c-9 0-17-8-17-19 0-10 8-18 17-18 5 0 10 2 13 6l0-165c0-5 3-9 8-9z m171 205l-64 0c-9 0-17-8-17-19 0-10 8-18 17-18 5 0 9 2 12 6l0-165c0-5 4-9 8-9l23 0c5 0 8 4 8 9l0 165c3-4 8-6 13-6 9 0 16 8 16 18 0 11-7 19-16 19z m-12-214l-296 0c-5 0-9-3-9-7 0-4 4-7 9-7l296 0c5 0 9 3 9 7 0 4-4 7-9 7z"/>
<glyph unicode="C" d="M184 425l144 0-26-42-92 0z m27-51l91 0c0-25 1-54-28-67-18-8-36-3-43 3-21 17-20 41-20 64z m-91-138l-2-149 46 0c0 0 4 77 6 71 2-9 11-71 13-71l9 0 128 193-162 0c-29 0-40-20-38-44z m224 44c1 1 49 5 48-35 0-24 2-156 2-156l-53-2 4 72c0 0-3-9-7-31-4-23-7-41-7-41l-111 0z"/>
<glyph unicode="D" d="M56 229c0 0 23-156 189-157 0 0-25 136-189 157z m211-157c166 1 189 157 189 157-164-21-189-157-189-157z m-15 368c-87-187-2-254-2-254 98 88 2 254 2 254z"/>
<glyph unicode="t" d="M256 391l-66-53 0 51-51 0 0-81-21-21 0-164 113 0 0 72 51 0 0-72 113 0 0 164z"/>
<glyph unicode="E" d="M256 420l-174-177 40 0 0-151 90 0 0 108 90 0 0-108 92 0 0 151 36 0z"/>
<glyph unicode="F" d="M376 289l0 67c0 0 29 156-127 156-156 0-127-156-127-156l0-67-51 0 0-282 356 0 0 282z m-105-141l0-73-44 0 0 73c-13 8-22 22-22 39 0 24 20 44 44 44 25 0 45-20 45-44 0-17-9-31-23-39m60 141l-164 0 0 67c0 18-22 111 82 111 105 0 82-93 82-111z"/>
<glyph unicode="G" d="M256 512c-141 0-256-115-256-256 0-141 115-256 256-256 141 0 256 115 256 256 0 141-115 256-256 256z m0-477c-122 0-221 99-221 221 0 122 99 221 221 221 122 0 221-99 221-221 0-122-99-221-221-221z m101 252l-70 0 0 70c0 17-14 31-31 31-18 0-32-14-32-31l0-70-69 0c-17 0-32-14-32-31 0-17 15-31 32-31l69 0 0-70c0-17 14-31 32-31 17 0 31 14 31 31l0 70 70 0c17 0 32 14 32 31 0 17-15 31-32 31z"/>
<glyph unicode="H" d="M315 201c-11 0-21-6-28-14l-90 50c1 3 2 7 2 10 0 4-1 7-2 11l90 49c7-8 17-13 28-13 21 0 38 17 38 38 0 21-17 39-38 39-20 0-37-18-37-39 0-3 0-7 1-10l-89-50c-7 9-17 14-29 14-21 0-37-18-37-39 0-21 16-38 37-38 12 0 22 5 29 13l89-49c-1-4-1-7-1-11 0-21 17-39 37-39 21 0 38 18 38 39 0 21-17 39-38 39z m-59-201c-141 0-256 115-256 256 0 141 115 256 256 256 141 0 256-115 256-256 0-141-115-256-256-256z m0 477c-122 0-221-99-221-221 0-122 99-221 221-221 122 0 221 99 221 221 0 122-99 221-221 221z"/>
<glyph unicode="I" d="M328 266l-144 0c-3 0-5-4-5-10 0-6 2-10 5-10l144 0c3 0 5 4 5 10 0 6-2 10-5 10z m10 0l-10 0 0 51c0 17-14 31-31 31l-82 0c-17 0-31-14-31-31l0-51-10 0c-17 0-31-14-31-30l0-41c0-17 14-31 31-31l164 0c17 0 31 14 31 31l0 41c0 16-14 30-31 30z m-133 51c0 6 4 11 10 11l82 0c6 0 10-5 10-11l0-51-102 0z m143-122c0-6-4-11-10-11l-164 0c-6 0-10 5-10 11l0 41c0 5 4 10 10 10l164 0c6 0 10-5 10-10z"/>
<glyph unicode="J" d="M493 429c-23 30-62 30-86 0l-151-195-152 195c-24 30-63 30-86 0-24-31-24-80 0-111l193-248c12-16 28-23 45-23 16 0 32 7 44 23l193 248c24 31 24 80 0 111z"/>
<glyph unicode="K" d="M264 210l76 76c4 5 4 12 0 16-4 4-11 4-16 0l-68-68-68 68c-5 4-12 4-16 0-2-2-3-5-3-8 0-3 1-6 3-8l76-76c4-4 12-4 16 0z"/>
<glyph unicode="L" d="M341 307c-8 10-21 10-29 0l-52-67-52 67c-8 10-21 10-29 0-8-11-8-27 0-38l66-84c4-6 9-8 15-8 5 0 11 2 15 8l66 84c8 11 8 27 0 38z m-85-212c-89 0-161 72-161 161 0 89 72 161 161 161 89 0 161-72 161-161 0-89-72-161-161-161z m0 301c-77 0-140-63-140-140 0-77 63-140 140-140 77 0 140 63 140 140 0 77-63 140-140 140z"/>
<glyph unicode="M" d="M128 276l256 0 0-40-256 0z"/>
<glyph unicode="O" d="M302 264l-76 76c-5 4-12 4-16 0-4-4-4-11 0-16l68-68-68-68c-4-5-4-12 0-16 2-2 5-3 8-3 3 0 6 1 8 3l76 76c4 4 4 12 0 16z"/>
<glyph unicode="Q" d="M411 173c-26 0-51-12-67-31l-168 97c4 10 7 22 7 35 0 9-2 19-5 28l64 50c14-10 31-15 49-15 48 0 88 39 88 87 0 49-40 88-88 88-48 0-88-39-88-88 0-16 5-30 12-43l-58-45c-15 16-37 25-62 25-48 0-87-39-87-87 0-49 39-88 87-88 22 0 41 8 57 21l174-100c-1-7-2-14-2-21 0-49 39-88 87-88 49 0 88 39 88 88 0 48-39 87-88 87z"/>
<glyph unicode="R" d="M468 164l-428 0-32-62 492 0z m-7 14c0 0 0 1-1 1 1 1 1 1 1 1l0 256c0 7-6 12-12 12l-390 0c-6 0-11-5-11-12l0-256c0 0 0 0 0-1 0 0 0-1 0-1l-1 0 414 0z m-30 20l-354 0 0 221 354 0z m76-110l-506 0-1-3c0-6 5-17 12-17l484 0c7 0 12 11 12 17z"/>
<glyph unicode="S" d="M443 299l-251 195c-31 24-81 24-112 0-31-24-31-63 0-87l197-153-197-154c-31-24-31-63 0-87 31-24 81-24 112 0l251 196c16 12 23 28 23 45 0 16-7 32-23 45z"/>
<glyph unicode="T" d="M414 32c5 0 8 0 9 0 0 0-58 48-71 115 89 25 157 83 158 159-3 103-120 172-255 173-135-1-253-70-255-173 1-82 79-143 178-164 92-102 203-110 235-110 1 0 1 0 1 0z m-5 365c38-25 59-57 59-91 1-52-56-105-144-124l-18-4 1-18c2-19 9-48 29-74-39 13-88 38-131 88l-5 5-7 2c-92 17-152 71-151 125 0 34 20 66 59 91 38 25 93 41 154 41 0 0 0 0 0 0 61 0 116-16 154-41z"/>
<glyph unicode="U" d="M255 287c-110 0-170-123-170-274 0-5 0-10 1-15l339 0c0 5 0 10 0 15 0 151-59 274-170 274z m2 28c56 0 101 44 101 98 0 55-45 99-101 99-56 0-101-44-101-99 0-54 45-98 101-98z"/>
<glyph unicode="V" d="M230 111l52 0 0 220-52 0z m26 237c15 0 26 12 26 27 0 14-11 26-26 26-15 0-26-12-26-26 0-15 11-27 26-27z m0 164c-141 0-256-115-256-256 0-141 115-256 256-256 141 0 256 115 256 256 0 141-115 256-256 256z m0-454c-109 0-198 89-198 198 0 110 89 198 198 198 109 0 198-88 198-198 0-109-88-198-198-198z"/>
<glyph unicode="W" d="M417 163l-325 0c-7 0-13-10-13-23 0-13 6-24 13-24l325 0c8 0 14 11 14 24 0 13-6 23-14 23z m25 116l-23 0 0 117c0 38-31 69-70 69l-186 0c-39 0-70-31-70-69l0-117-23 0c-39 0-70-31-70-70l0-93c0-38 31-69 70-69l372 0c39 0 70 31 70 69l0 93c0 39-31 70-70 70z m-302 117c0 12 10 23 23 23l186 0c13 0 23-11 23-23l0-117-232 0z m325-280c0-13-10-23-23-23l-372 0c-13 0-23 10-23 23l0 93c0 13 10 24 23 24l372 0c13 0 23-11 23-24z"/>
<glyph unicode="Y" d="M18 70c23-31 62-31 86 0l152 195 151-195c24-31 63-31 86 0 24 31 24 80 0 110l-193 249c-12 16-28 23-44 23-17 0-33-7-45-23l-193-249c-24-30-24-79 0-110z"/>
<glyph unicode="Z" d="M256 512c-141 0-256-115-256-256 0-142 115-257 256-257 142 0 257 115 257 257 0 141-115 256-257 256z m-38-319l-34-61c-16-27-59-4-42 25l35 59c8 14 23 16 33 10 10-6 16-19 8-33z m-22 117c-15 0-27 12-27 27 0 15 12 27 27 27 15 0 27-12 27-27 0-15-12-27-27-27z m139-178c-25-38-67-2-47 24 22 27 35 62 35 100 0 36-12 70-33 97-24 32 19 62 45 27 24-35 39-78 39-124 0-47-16-90-39-124z"/>
<glyph unicode="0" d="M256 512c-141 0-256-115-256-256 0-142 115-257 256-257 142 0 257 115 257 257 0 141-115 256-257 256z m178-251c-4-22-42-20-42-20 0 0-29-101-121-115-113-16-177 26-185 69 0 0 68-60 124 0 0 0-9 0-15 5 0 0-7 5-7 12 0 5 10 17 10 17 0 0-22-1-36 14-1 1-9 8 2 15 7 4 17 9 17 9 0 0-10-4-18 0 0 0-16 13-19 25-2 10 11 9 11 9l9 0c0 0-32 23-24 42 0 0 7 13 111-57 0 0 23 74 55 83 2 0 5-6 5-6 0 0 5 11 11 12 5-3 6-9 3-11 1 0 14 9 20 4 1-7-20-18-20-18 0 0 48 0 68-69 0 0 26-4 43 10-1-16-31-28-31-28 0 0 18-4 29-2z"/>
<glyph unicode="1" d="M256 512c-141 0-256-115-256-256 0-141 115-256 256-256 141 0 256 115 256 256 0 141-115 256-256 256z m149-363l-298 0 0 143 104-73c13-9 29-13 45-13 16 0 31 4 45 13l104 73z m0 184l-124-86c-6-4-15-7-25-7-10 0-19 3-25 7l-124 86 0 30 298 0z"/>
<glyph unicode="2" d="M256 512c-141 0-256-115-256-256 0-142 115-257 256-257 142 0 257 115 257 257 0 141-115 256-257 256z m66-163c0 0-29 0-31 0-19 0-16-14-16-47l46 1-7-47-40 0 1-164-59 0 0 164-35 0 0 46c0 0 35 0 35 0 2 25-11 94 47 94l59 0z"/>
<glyph unicode="3" d="M134 174c0-4 2-46 68-47 62 2 56 40 57 41 0 29-38 50-51 52-15-1-74-3-74-46z m122 338c-141 0-256-115-256-256 0-142 115-257 256-257 142 0 257 115 257 257 0 141-115 256-257 256z m16-174c0-45-43-50-43-74 0-13 14-18 24-27 22-16 30-34 30-53 0-37-33-73-99-73 0-1-82-2-85 55 0-1-4 25 32 47 21 14 50 15 73 18-8 9-12 16-12 26 0 5 2 9 4 14-7 0-9 0-12 0-47 0-63 38-63 60-1 26 13 41 24 52 12 10 29 20 69 20 0 0 79 0 79 0l-25-13c0 0-23 0-24 0 3-2 27-17 28-52z m136 7l-36 0 0-36-24 0 0 36-37 0 0 24 37 0 0 36 24 0 0-36 36 0z m-219 45c-46-1-34-58-34-58 0 0 11-49 44-51 51 0 38 57 38 57 0 0-12 56-48 52z"/>
<glyph unicode="4" d="M225 403l-50 0c-26 0-40-14-47-31l-34-78c-14-2-38-18-38-48 0 0 1-46 1-63 0-20 38-28 38-28l0-28c0-45 52-44 52 0l0 28 238 0 0-28c0-44 53-45 53 0l0 28c0 0 38 11 38 28 0 17 0 63 0 63 0 30-24 46-38 48l-34 78c-7 17-21 31-47 31l-49 0m-186-216c-19 0-35 15-35 35 0 19 16 35 35 35 19 0 34-16 34-35 0-20-15-35-34-35z m8 109l26 58c3 10 8 17 19 17l182 0c12 0 16-7 20-17l26-58z m281-109c-19 0-35 15-35 35 0 19 16 35 35 35 19 0 34-16 34-35 0-20-15-35-34-35z"/>
<glyph unicode="5" d="M156 194c-16 23-15 45 2 66 15 9 29 19 43 30 9-13 27-26 50-28 0-22 0-44-7-56-18-37-60-45-88-12z m34 292c28 2 47-10 56-35 1-18 2-35 4-53-15-2-34-9-48-28-12 12-27 22-42 32-24 34-12 75 30 84z m-83-331c8-83 55-117 130-116-1 77-62 125-130 116z m143 23l0-142 17 0 0 142z m-160 171c-11-41 19-71 60-66 17 8 30 13 46 20-11 21-6 44 0 59-17 6-33 13-49 21-26 3-45-7-57-34z m332-6c-12 26-31 37-57 33-16-7-30-13-46-19 5-15 9-40-3-58 16-5 30-14 46-22 41-5 71 24 60 66z m-68-150c-28-33-68-23-86 14-2 13-4 38-5 55 24 2 40 14 49 27 16-10 29-20 41-31 16-20 17-42 1-65z m4 269c16-24 14-46-3-66-14-10-29-18-43-28-9 13-26 28-49 30 4 17 6 31 8 49 17 38 58 47 87 15z"/>
<glyph unicode="6" d="M280 117l224 224c12 13 12 34 0 46-13 13-34 13-46 0l-201-201-201 201c-13 13-34 13-46 0-7-6-10-14-10-23 0-8 3-16 10-23l224-224c12-12 33-12 46 0z"/>
<glyph unicode="7" d="M72 221l0 34 382 0 0-34z m299 151c-16 0-30 13-30 30 0 16 14 30 30 30 17 0 30-14 30-30 0-17-13-30-30-30z m47-136l-2 84-6 0 0-230c0-24-33-23-33 0l-2 133-7 0-2-133c0-23-33-24-33 0l0 236-52-56c-12-14-33 3-21 18l58 70c4 4 7 8 21 8l65 0c29 0 38-7 38-39l0-91c0-18-24-18-24 0z m-183 25c0 0-14 19-21 30-5 8-21 30-21 30l0-60-76 0 0 53-6 0-1-53-25 0 0 61c0 31 9 39 38 39l32 0 33 0c21 0 25-14 35-30 2-4 9-13 9-13l33-57z m-80 106c-16 0-30 13-30 29 0 17 14 30 30 30 17 0 30-13 30-30 0-16-13-29-30-29z"/>
<glyph unicode="8" d="M234 314c0-1-14-16-28-28 6-10 18-26 38-47 21-20 37-32 47-38 11 14 27 28 28 28l8 7 102-80-7-11c-2-2-32-43-81-59l-3-1-3 1c-3 0-75 10-155 89-79 80-89 152-89 155l-1 3 1 3c16 49 58 79 59 80l11 8"/>
<glyph unicode="9" d="M257 62c-1 0-1 0-2 0-2 0-4 0-7 0l-199 53c-8 2-14 10-14 18l0 280c0 6 3 11 7 15 4 3 10 5 16 4l197-42 197 42c6 1 12-1 16-4 4-4 7-9 7-15l0-280c0-8-6-16-14-18l-199-53c-2 0-4 0-5 0z m18 294l0-252 163 43 0 243z m-203-209l163-43 0 252-163 34z"/>
<glyph unicode="!" d="M54 411l403 0c2 0 4 0 6-1l-209-187-207 187c2 1 5 1 7 1z m425-285c0-13-10-25-22-25l-403 0c-12 0-21 12-21 25l0 241 208-188c4-3 9-5 13-5 5 0 10 2 14 5l211 190z"/>
<glyph unicode="&quot;" d="M250 454c1 2 4 3 6 3 2 0 4-1 6-3l107-187 22 12-108 187c-6 9-16 15-27 15-11 0-21-6-27-15l-108-187 21-13c55 95 108 188 108 188z m258-377l-111 192-22-12 112-192c1-2 1-5 0-7-2-2-4-3-6-3l-219 0 0-24 219 0c11 0 21 6 27 15 5 10 5 21 0 31z m-483-19c0 1-1 2-1 4 0 1 1 2 1 3 0 0 55 95 111 191l-21 12-111-191c-5-10-5-21 0-31 6-9 16-15 27-15l219 0 0 24-219 0c-2 0-4 1-6 3z m207 279l0-154c0-13 11-24 24-24 13 0 24 11 24 24l0 154c0 13-11 24-24 24-13 0-24-11-24-24z m50-226c0 15-12 26-26 26-14 0-26-11-26-26 0-14 12-25 26-25 14 0 26 11 26 25z"/>
<glyph unicode="#" d="M256 512c-141 0-256-115-256-256 0-142 115-257 256-257 142 0 257 115 257 257 0 141-115 256-257 256z m16-236c1 1 2 2 2 2 15 22 36 28 60 24 29-4 47-24 52-54 1-8 1-15 1-22 0-30 0-61 0-91 0-3-1-4-4-4-16 0-32 0-48 0-3 0-4 1-4 4 0 28 0 56 0 85 0 6 0 13-2 19-6 20-29 27-45 13-9-7-12-16-12-27 0-27 0-54 0-80 0-4 0-7 0-11 0-3-1-3-4-3-16 0-32 0-48 0-3 0-4 0-4 3 0 24 0 48 0 72 0 30 0 60 0 89 0 3 1 4 4 4 16 0 32 0 49 0 2 0 3-1 3-3 0-6 0-13 0-20z m-87-61c0-27 0-53 0-80 0-3 0-4-4-4-16 0-32 0-48 0-3 0-4 0-4 3 0 54 0 108 0 162 0 2 1 3 4 3 16 0 32 0 48 0 4 0 4-1 4-4 0-26 0-53 0-80z m-27 166c21 0 35-17 30-37-4-16-20-24-38-21-19 3-29 21-22 39 4 12 15 19 30 19z"/>
<glyph unicode="$" d="M256 512c-141 0-256-115-256-256 0-141 115-256 256-256 141 0 256 115 256 256 0 141-115 256-256 256z m21-317c-17 0-33 9-38 19 0 0-10-36-12-43-6-25-27-50-28-52-1-2-4-1-4 1 0 3-6 34 1 60 3 13 20 86 20 86 0 0-5 11-5 25 0 24 13 41 30 41 15 0 22-10 22-23 0-15-9-37-14-57-4-16 8-30 25-30 30 0 50 38 50 84 0 35-23 61-66 61-48 0-78-36-78-76 0-14 4-24 11-31 3-4 3-5 2-9-1-3-3-10-3-13-1-4-5-5-8-4-22 9-33 34-33 61 0 45 38 99 113 99 61 0 101-44 101-91 0-62-35-108-86-108z"/>
<glyph unicode="%" d="M256 512c-141 0-256-115-256-256 0-141 115-256 256-256 141 0 256 115 256 256 0 141-115 256-256 256z m125-220c-3-11-12-27-21-42-11-17-27-39-40-55-27-32-50-50-70-53-4-1-10-1-12 0-13 3-23 16-32 39-1 2-5 15-12 42-6 22-11 42-12 44-4 12-8 24-13 30-3 5-7 8-10 8-2 1-2 1-4-1-2-1-9-5-14-9-2-1-3-2-3-2-1 0-3 3-6 8-4 4-6 7-7 8 0 0 1 0 5 4 6 6 19 18 26 24 12 11 19 17 27 22 9 6 15 8 21 9 16 0 27-9 33-30 1-5 2-8 4-22 6-35 8-47 12-62 4-17 9-27 14-30 1 0 2 0 3 0 6 0 14 9 25 27 9 14 14 26 16 35 1 2 1 4 1 8 0 5 0 6-1 7-1 5-3 8-7 10-3 1-5 2-10 2-6 0-11-1-16-3-2-1-3-1-3-1 0 0 1 2 1 4 5 14 10 24 17 33 3 3 8 8 11 11 5 4 11 8 17 10 13 4 30 5 41 2 15-5 23-18 25-39 1-16-2-26-6-38z"/>
<glyph unicode="&amp;" d="M318 229c-6 3-3 3-62 3-48 0-54-1-57-1-9-3-16-11-16-21 0-6 2-12 7-16 3-3 5-4 9-5 2-1 7-1 57-1 47 0 54 0 56 1 4 1 7 2 10 5 7 7 9 17 4 26-1 3-5 7-8 9z m-114 59c2-1 4-1 20-1 38-1 41-1 46 1 1 0 3 2 5 3 14 10 10 32-7 38-2 1-5 1-17 1-26 1-44 1-46 0-4-1-7-3-10-6-11-11-7-30 9-36z m52 224c-141 0-256-115-256-256 0-141 115-256 256-256 141 0 256 115 256 256 0 141-115 256-256 256z m124-313c-3-20-10-35-22-48-11-11-25-17-43-20-4-1-11-1-56-1-28 0-54 0-57 0-31 2-53 15-64 39-4 11-6 21-6 35-1 7 1 89 1 106 1 18 4 30 11 42 10 16 26 25 47 29 8 1 78 2 85 1 16-3 29-9 39-20 9-10 14-20 17-33 2-9 2-31 0-40 0-3 0-4 0-4 0 0 3 0 6-1 10-1 19-3 25-8 11-7 16-18 17-35 1-10 1-36 0-42z"/>
<glyph unicode="'" d="M198 253l-28 0-27 0 0-16 9 0 10 0 0-51c0-28 0-51 0-51 0-1 2-1 8-1l9 0 0 52 0 51 10 0 9 0 0 8z m96-30c-4 0-8-2-12-6-1-1-3-3-3-3 0 0-1 9-1 19l0 20-15 0 0-119 15 0 0 4c0 3 1 4 1 4 0 0 2-1 4-3 6-6 11-7 17-5 2 1 5 4 7 6 2 6 2 6 2 38 0 27 0 30 0 33-2 9-7 13-15 12z m-2-71c0-1-1-2-2-3-2-2-6-1-9 1l-2 2 0 53 2 1c4 4 9 3 11-1 1-1 1-2 1-26 0-23 0-25-1-27z m-59 70l0-68-4-3c-2-2-3-3-5-4-3 0-4 0-6 2 0 1 0 2-1 37l0 36-15 0 0-38c0-41 0-42 3-46 2-5 8-6 14-4 3 1 7 4 10 7 1 1 3 2 3 2 0 0 1-1 1-4l0-5 15 0 0 88z m123-58l-1-5c0-6-1-8-3-10-2-3-6-3-9-1-4 3-4 6-4 19l0 9 16 0 16 0 0 13c0 15-1 17-3 22-5 10-18 15-29 11-8-3-13-8-15-17 0-2 0-5 0-27 0-26 0-27 2-32 5-10 17-15 28-12 8 2 14 8 16 16 0 1 1 5 1 8l0 6-15 0z m-17 40c2 4 4 6 8 6 4 0 6-2 7-5 1-1 1-2 1-9l1-8-9 0c-7 0-8 1-8 1-1 1 0 13 0 15z m-83 308c-141 0-256-115-256-256 0-141 115-256 256-256 141 0 256 115 256 256 0 141-115 256-256 256z m38-128l17 0 0-36c0-39 0-38 2-39 3 0 5 1 8 4l3 3 0 34 0 34 9 0 8 0 0-89-1-1c-1 0-14 0-15 0-1 1-1 1-1 5l0 4-3-3c-5-5-11-8-17-7-4 1-6 2-8 6-2 4-2 4-2 46l0 39z m-48-1c8 4 17 3 25-2 5-3 8-8 10-15 0-3 0-5 0-27 0-26 0-27-2-33-3-5-9-10-15-12-3-1-7-1-9-1-8 1-15 6-19 12-3 6-3 9-3 37 0 21 0 22 1 26 2 7 6 12 12 15z m-74 32c8 0 18 0 19 0 0-1 2-10 6-23 3-12 6-22 6-22 0 0 2 7 4 16 5 18 7 28 7 28 1 1 3 1 11 1l8 0 0-2c0-1-6-21-12-40-1-3-2-8-4-13-1-5-3-11-4-13l-1-4 0-24c0-23 0-24-1-25-1 0-17 0-18 1 0 0 0 35 0 40 1 6 0 11-5 24-1 4-4 12-6 17-12 41-12 39-10 39z m223-231c0-22-1-41-3-51-3-12-8-21-14-26-5-4-11-6-19-7-3 0-6 0-8 0-4-1-31-2-45-2-22-1-60-1-80 0-10 0-22 0-26 0-30 1-50 2-54 3-6 1-12 5-16 10-6 7-9 16-11 30-3 32-3 69 0 100 2 14 6 23 13 30 4 4 8 6 13 8 11 2 95 5 147 3 30 0 62-2 71-3 11-1 19-7 24-17 4-9 5-15 7-35 1-15 2-25 1-43z m-140 125c2 0 5 0 6 1 3 3 3 3 3 28 0 20 0 23 0 25-1 4-2 6-5 7-4 1-7-2-8-5-1-3-1-48 0-51 1-2 3-5 4-5z"/>
<glyph unicode="(" d="M256 512c-141 0-256-115-256-256 0-141 115-256 256-256 141 0 256 115 256 256 0 141-115 256-256 256z m-68-310c-30 0-55 24-55 54 0 30 25 54 55 54 30 0 54-24 54-54 0-30-24-54-54-54z m136 0c-30 0-54 24-54 54 0 30 24 54 54 54 30 0 55-24 55-54 0-30-25-54-55-54z"/>
<glyph unicode=")" d="M256 512c-141 0-256-115-256-256 0-141 115-256 256-256 141 0 256 115 256 256 0 141-115 256-256 256z m146-169c0-2-1-3-2-3-8 0-14-2-18-5-4-3-7-7-9-13 0 0-49-112-66-150-6-12-13-11-18 1-7 15-20 43-31 66l-1 3c-12-24-27-54-35-69-7-13-14-12-18-1-18 41-53 111-69 151-3 7-6 12-8 14-2 2-6 3-13 3-3 0-4 1-4 2l0 6 0 0c12 0 66 0 66 0l1 0 0-6c0-1-1-2-3-2l-7 0c-6 0-9-2-9-5 0-2 1-4 2-8 14-32 59-127 59-127l2-1 29 59c-2 3-6 13-6 13l-20 39c0 0-4 8-5 11-9 17-9 18-18 19-2 1-4 1-4 2l0 6 1 0c16 0 52 0 52 0l1 0 0-6c0-1 0-2-2-2l-4 0c-10-1-8-5-2-17l20-40 21 43c4 7 3 9 1 11 0 1-3 3-9 3l-3 0c0 0-1 1-2 1 0 0 0 1 0 2l0 5 0 0c15 0 49 0 49 0l1 0 0-5c0-2-1-3-2-3-8 0-10-1-13-5-1-2-5-7-8-13l-28-51c0 0 0-2 0-2l34-70 2 0 53 127c2 5 2 8-1 11-2 2-4 3-10 3l-5 0c-1 0-1 1-2 1 0 0-1 1-1 2l0 5 1 0 61 0 0 0 0-5z"/>
<glyph unicode="*" d="M256 512c-141 0-256-115-256-256 0-141 115-256 256-256 141 0 256 115 256 256 0 141-115 256-256 256z m0-402c-80 0-146 65-146 146 0 81 66 146 146 146 81 0 146-65 146-146 0-81-65-146-146-146z m2 135l-39-115c12-3 24-5 37-5 15 0 30 2 44 7-1 1-1 1-1 2z m87 18c0 16-6 27-11 36-7 11-13 20-13 31 0 12 9 23 22 23 1 0 1 0 2 0-24 21-55 34-89 34-46 0-86-23-110-59 3 0 6 0 9 0 14 0 35 2 35 2 7 0 8-10 1-11 0 0-8-1-15-1l47-143 29 86-20 57c-7 0-14 1-14 1-7 0-6 11 1 11 0 0 21-2 34-2 14 0 35 2 35 2 7 0 8-10 1-11 0 0-7-1-15-1l48-142 13 44c5 18 10 31 10 43z m-220-7c0-52 30-97 74-118l-63 172c-7-17-11-35-11-54z m197-114c39 23 65 66 65 114 0 23-5 44-16 63 1-4 1-9 1-13 0-14-2-29-10-48z"/>
<glyph unicode="+" d="M468 427l-422 0c-24 0-45-20-45-45l0-248c0-25 21-45 45-45l422 0c25 0 45 20 45 45l0 248c0 25-20 45-45 45z m-167-58l112 0c1 0 2-4 2-10 0-5-1-9-2-9l-112 0c-2 0-3 4-3 9 0 6 1 10 3 10z m-179 13c22 0 39-18 39-40 0-22-17-39-39-39-22 0-39 17-39 39 0 22 17 40 39 40z m1-218c-48 0-87-7-87 11 0 58 23 107 56 125 8-6 19-10 30-10 11 0 22 4 30 10 33-18 56-67 56-125 0-11-38-11-85-11z m348 90l-228 0c-3 0-5 3-5 7 0 4 2 7 5 7l228 0c2 0 4-3 4-7 0-4-2-7-4-7z m0 27l-228 0c-3 0-5 3-5 7 0 3 2 6 5 6l228 0c2 0 4-3 4-6 0-4-2-7-4-7z"/>
<glyph unicode="-" d="M256 0c-141 0-256 115-256 256 0 141 115 256 256 256 141 0 256-115 256-256 0-141-115-256-256-256z m0 477c-122 0-221-99-221-221 0-122 99-221 221-221 122 0 221 99 221 221 0 122-99 221-221 221z m-92-457c-14 0-26 11-26 26l0 159c0 40 25 82 81 82l78 0-39 54c-8 11-6 28 6 37 12 8 28 5 37-6l69-96c6-8 7-19 2-28-4-9-13-14-23-14l-130 0c-19 0-28-10-28-29l0-159c0-15-12-26-27-26z m115 117c-5 0-10 2-15 5-12 9-15 25-6 37l69 96c9 12 25 14 37 6 12-9 15-25 6-37l-69-96c-5-7-13-11-22-11z"/>
<glyph unicode="," d="M258 7l-4 0c-138 0-251 111-254 248-1 67 24 131 71 180 47 48 110 76 178 77l5 0c137 0 251-111 253-248 2-68-24-131-71-180-47-49-110-76-178-77z m-4 487l-5 0c-62-1-121-27-165-72-44-45-67-104-66-167 3-127 108-230 236-230l4 0c63 1 121 26 165 72 44 45 67 104 66 167-2 127-108 230-235 230z m8-348c4-3 4-9 0-13-3-3-9-3-12 0l-129 124 6 6c0 0 0 0 0 0l118 122c2 2 4 3 7 3 2 0 4-1 6-2 3-4 4-10 0-13l-103-106 219 4c0 0 0 0 0 0 5 0 9-4 9-9 0-5-4-9-9-10l-218-3 106-103"/>
<glyph unicode="." d="M249 512l5 0c137 0 251-111 253-248 2-68-24-131-71-180-47-49-110-76-178-77l-4 0c-138 0-251 111-254 248-1 67 24 131 71 180 47 48 110 76 178 77z m5-487l4 0c63 1 122 26 165 72 44 45 67 104 66 167-2 127-108 230-235 230l-5 0c-62-1-121-27-165-72-43-45-67-104-66-167 3-127 108-230 236-230z m-9 348c-3 3-4 9 0 12 3 4 9 4 13 1l129-124-7-7c0 0 0 0 0 0l-118-122c-1-1-4-2-6-2-2 0-5 0-6 2-4 4-4 9-1 13l103 106-218-4c0 0 0 0 0 0-5 0-9 4-10 9 0 5 4 9 9 9l219 4-107 103"/>
<glyph unicode="/" d="M120 406l0 101 40 0 0-101z m0 0l0 101 40 0 0-101z m219 0l0 101 40 0 0-101z m0 0l0 101 40 0 0-101z m-318-20l0 40c0 11 9 20 20 20l79 0 0-40 40 0 0 40 179 0 0-40 40 0 0 40 80 0c11 0 20-9 20-20l0-40z m438-384l-418 0c-11 0-20 9-20 20l0 343 458 0 0-343c0-11-9-20-20-20z m-319 323l-80 0 0-81 80 0z m0-101l-80 0 0-81 80 0z m0-101l-80 0 0-81 80 0z m100 202l-80 0 0-81 80 0z m0-101l-80 0 0-81 80 0z m0-101l-80 0 0-81 80 0z m99 202l-79 0 0-81 79 0z m0-101l-79 0 0-81 79 0z m0-101l-79 0 0-81 79 0z m100 202l-80 0 0-81 80 0z m0-101l-80 0 0-81 80 0z m0-101l-80 0 0-81 80 0z"/>
<glyph unicode=":" d="M256 5c-138 0-249 112-249 249 0 138 111 250 249 250 138 0 249-112 249-250 0-137-111-249-249-249z m0 441c-106 0-192-86-192-192 0-105 86-191 192-191 106 0 192 86 192 191 0 106-86 192-192 192z m41-232l-149-68 67 149 150 68z m-68 68l-54-109 108 54z"/>
<glyph unicode=";" d="M428 386l-117 123c-2 2-4 3-7 3l-214 0c-5 0-9-4-9-9l0-494c0-5 4-9 9-9l332 0c5 0 8 4 8 9l0 370c0 3-1 5-2 7z m-115 95l88-92-88 0z m100-463l-314 0 0 476 197 0 0-115c0-5 4-9 8-9l109 0z m-273 276c0-5 4-9 9-9l214 0c5 0 9 4 9 9 0 5-4 9-9 9l-214 0c-5 0-9-4-9-9z m223-58l-214 0c-5 0-9-4-9-9 0-5 4-9 9-9l214 0c5 0 9 4 9 9 0 5-4 9-9 9z m0-66l-214 0c-5 0-9-5-9-10 0-5 4-9 9-9l214 0c5 0 9 4 9 9 0 5-4 10-9 10z m0-67l-214 0c-5 0-9-4-9-9 0-5 4-9 9-9l214 0c5 0 9 4 9 9 0 5-4 9-9 9z"/>
<glyph unicode="&lt;" d="M98 211c2-2 3-3 3-6 0-5-3-8-7-8-5 0-6 3-7 6-9 13-34 56-36 59 0 3-25 39 33 60 0 0 4 1 4 12 0 13-1 114-1 116 0 17-9 33-28 33-19 0-28-14-28-33 0 0-24-156-15-207 2-6 4-15 10-25 0 0 11-24 77-109 0 0 11-13 11-26l15-84 79 0 9 101c0 0 0 33-13 53l-93 146c0 0-13 20-39 1 0 0-24-15-13-31 10-16 39-58 39-58z m314 0c-1-2-1-3-1-5 0-4 3-7 7-7 5 0 6 3 7 6 9 13 34 55 36 58 0 3 25 40-33 60 0 0-4 2-4 12 0 13 1 115 1 116 0 18 9 34 28 34 19 0 28-16 28-34 0 0 24-155 15-207-2-6-4-14-10-25 0 0-11-23-77-108 0 0-11-13-11-27l-15-83-79 0-11 101c0 0 0 32 14 53l92 145c0 0 13 21 40 1 0 0 23-14 13-30-10-16-40-60-40-60z m-155 246c14 0 26 12 26 26 0 15-12 27-26 27-15 0-27-12-27-27-1-13 12-26 27-26z m29-4l-59 0c-26 0-33-8-33-36l0-82c0-16 22-16 22 0l1 75 6 0 0-207c0-22 29-20 29 0l2 120 6 0 1-120c0-20 29-22 29 0l0 207 6 0 2-75c0-16 22-16 22 0l0 82c0 28-9 36-34 36z"/>
<glyph unicode="=" d="M256 512c-141 0-256-115-256-256 0-141 115-256 256-256 141 0 256 115 256 256 0 141-115 256-256 256z m0-454c-109 0-198 89-198 198 0 110 89 198 198 198 109 0 198-88 198-198 0-109-88-198-198-198z m-42 165l-57 46-26-21 99-104c18 45 72 133 138 196l-7 15c-71-46-124-103-147-132z"/>
<glyph unicode="&gt;" d="M256 200c14 0 25 11 25 25l0 162c0 14-11 25-25 25-14 0-25-11-25-25l0-162c0-14 11-25 25-25z m0-23c-15 0-27-12-27-27 0-14 12-26 27-26 15 0 27 12 27 26 0 15-12 27-27 27z m0 335c-141 0-256-115-256-256 0-141 115-256 256-256 141 0 256 115 256 256 0 141-115 256-256 256z m0-454c-109 0-198 89-198 198 0 110 89 198 198 198 109 0 198-88 198-198 0-109-88-198-198-198z"/>
<glyph unicode="P" d="M115 263c-6 0-16 5-26 23-8 14-19 17-26 17-28 2-58-37-61-41-3-5-2-11 2-15 5-3 11-2 14 3 9 11 30 34 44 33 1 0 5 0 9-8 11-17 22-28 36-31 3-1 6-1 8-1 5-40 33-117 101-117l166 0 1 0c1 0 128 12 128 130 0 117-127 130-128 130l-167 0c-71 0-98-84-101-123z m101 102l58 0c14-35 20-69 21-99l-159 0c4 32 25 99 80 99z m-80-120l159 0c-2-48-16-85-21-99l-58 0c-55 0-76 67-80 99z m355 11c0-97-101-109-110-110l-85 0c8 21 20 60 20 111 0 32-5 69-20 108l85 0c9-1 110-12 110-109z"/>
<glyph unicode="?" d="M256 507l-123-98 0 89-95 0 0-146-38-38 0-309 209 0 0 132 94 0 0-132 209 0 0 309z"/>
<glyph unicode="@" d="M251 50c-59 0-79 52-82 80l0 1 0 95c0 42 42 59 68 64 0 0 0 1 0 1 3 9 10 18 22 25 0 0 0 0 0 0-1 4-8 13-16 18l-5 4 0 125 26 0 0-112c9-8 22-22 21-37 0-9-5-16-13-21-2-1-4-2-5-3 26-6 66-23 66-64l0-96c-3-28-23-80-82-80z m-56 82c1-6 8-56 56-56 48 0 55 50 56 56l0 39c-47-16-89-8-112 0l0-39z m69 132l0-76c13 1 28 4 43 10l0 28c0 23-26 34-43 38z m-69-66c9-3 24-8 43-10l0 76c-17-4-43-15-43-38l0-28z"/>
<glyph unicode="[" d="M251 226l104-105c0 0 52 91 74 116 16 18 80 88 80 88l0 13c0 0-94-65-115-86-28-27-53-54-53-54l-78 54z m-137 120c-61 0-111-50-111-111l0-125c0-61 50-110 111-110 61 0 110 49 110 110l0 125c0 61-49 111-110 111z m0-104c-8 0-15 6-15 14l0 42c0 8 7 15 15 15 8 0 15-7 15-15l0-42c0-8-7-14-15-14z m-6 91l0-9c-12-3-21-13-21-26l0-42c0-12 9-23 21-25l0-10-92 0 0 15c0 51 40 94 92 97z m6-321c-54 0-98 44-98 98l0 98 196 0 0-98c0-54-44-98-98-98z m98 209l-92 0 0 10c12 2 21 13 21 25l0 42c0 13-9 23-21 26l0 9c51-3 92-46 92-98l0-14z m-91 117l-14 0 0 25c0 11 10 14 17 17 9 4 14 6 14 16 0 13-6 15-15 17-6 2-16 5-16 17l0 82 13 0 0-82c0-1 0-2 7-4 9-2 24-7 24-30 0-20-14-25-23-29-6-2-7-3-7-4l0-25z"/>
<glyph unicode="]" d="M423 0l-415 0 0 512 240 0 176-173-200 0 1 140-183 0 0-446 348 0 0 169 33 0z m-166 372l86 0-85 84z m-153-157l161-161c0 0 81 141 115 179 24 28 124 137 124 137l0 20c0 0-146-102-179-133-44-42-82-84-82-84l-121 84z"/>
<glyph unicode="^" d="M256 512c-141 0-256-114-256-256 0-141 115-256 256-256 141 0 256 115 256 256 0 142-115 256-256 256z m0-473c-120 0-217 97-217 217 0 120 97 217 217 217 120 0 217-97 217-217 0-120-97-217-217-217z m-158 265l0-76 70 0 127-70 0 216-124-70z m257 31l-17-12c21-15 32-35 32-56 0-21-11-40-32-55-5-4-5-9 0-12 2-2 5-3 8-3 4 0 7 1 9 3 52 37 52 97 0 135z"/>
<glyph unicode="_" d="M197 177l161 79-161 98z m59 335c-141 0-256-114-256-256 0-141 115-256 256-256 141 0 256 115 256 256 0 142-115 256-256 256z m0-473c-120 0-217 97-217 217 0 120 97 217 217 217 120 0 217-97 217-217 0-120-97-217-217-217z"/>
<glyph unicode="`" d="M256 512c-141 0-256-114-256-256 0-141 115-256 256-256 141 0 256 115 256 256 0 142-115 256-256 256z m0-473c-120 0-217 97-217 217 0 120 97 217 217 217 120 0 217-97 217-217 0-120-97-217-217-217z m98 316l-197 0c-10 0-19-9-19-20 0-11 9-20 19-20l197 0c11 0 20 9 20 20 0 11-9 20-20 20z m0-60l-197 0c-10 0-19-8-19-19 0-11 9-20 19-20l197 0c11 0 20 9 20 20 0 11-9 19-20 19z m0-59l-197 0c-10 0-19-8-19-19 0-11 9-20 19-20l197 0c11 0 20 9 20 20 0 11-9 19-20 19z m-78-59l-119 0c-10 0-19-9-19-19 0-11 9-20 19-20l119 0c11 0 19 9 19 20 0 10-8 19-19 19z"/>
<glyph unicode="{" d="M511 209c0 0 1 1 1 1l-93 223c-1 4-5 6-9 6l-92 0c0 0 0 0 0 0-5 0-9-4-9-9 0-5 4-9 9-9l85 0 87-204-146 0c-2 0-5-1-7-3l-81-87-86 87c-2 2-4 3-7 3l-141 0 87 204 85 0c5 0 9 4 9 9 0 5-4 9-9 9 0 0 0 0 0 0l-92 0c-4 0-8-2-9-6l-93-223c0 0 1-1 1-1-1-1-1-1-1-2l0-187c0-6 4-10 9-10l494 0c5 0 9 4 9 10l0 187c0 1 0 1-1 2z m-17-180l-476 0 0 169 142 0 89-91c2-2 5-3 7-3 3 0 5 1 7 3l85 91 146 0 0-169z m-306 248c-4-4-4-10 0-14l62-62c1-2 4-3 6-3 2 0 5 1 7 3l61 62c4 4 4 10 0 14-3 3-9 3-13 0l-46-47 0 262c0 6-4 10-9 10-5 0-9-4-9-10l0-262-46 47c-4 3-10 3-13 0z"/>
<glyph unicode="|" d="M80 209l251-196c31-24 81-24 112 0 31 24 31 63 0 87l-198 154 198 153c31 24 31 63 0 87-31 24-81 24-112 0l-251-195c-16-13-24-29-23-45-1-17 7-33 23-45z"/>
<glyph unicode="N" d="M384 276l-108 0 0 108-40 0 0-108-108 0 0-40 108 0 0-108 40 0 0 108 108 0z"/>
<glyph unicode="}" d="M297 450c-164 0-297-133-297-297 0-31 5-60 13-88l31 0c-10 27-15 57-15 88 0 148 120 268 268 268 86 0 164-41 213-105l0 44c-54 55-130 90-213 90z m185-164c-70 12-148 17-175-5-19 30-94 51-164 63-3 1-7-2-7-5l-35-210c-1-3 2-7 5-7 80-14 137-40 153-57l33 0c27 8 83 11 152 0l5 0c2 0 3 2 4 4l35 210c0 4-2 7-6 7z m-359-150l30 185c93-16 140-40 137-54l-29-179c-23 22-76 37-138 48z m312-53c-63 10-118 14-147 0l30 179c2 14 54 21 147 6z"/>
<glyph unicode="\" d="M336 88l0-35c0-20-16-36-35-36l-266 0c-19 0-35 16-35 36l0 406c0 20 16 36 36 36l176 0 0-106c0-20 16-36 36-36l88 0 0-35-159 0c-29 0-53-24-53-53l0-124c0-29 23-53 53-53z m-106 407l0-106c0-10 8-18 18-18l88 0z m-53-195c-20 0-35-16-35-35l0-124c0-19 15-35 35-35l301 0c19 0 35 16 35 35l0 124c0 20-16 35-35 35z m23-26l17 0 0-117c0-11-1-19-3-25-2-5-6-9-11-12-5-3-11-5-18-5-1 0-3 0-6 1l-3 15 5 0c4 0 8 1 11 2 2 1 4 3 6 6 1 4 2 10 2 20z m43-119l0 119 37 0c12 0 21-3 28-9 6-6 10-14 10-25 0-6-2-13-5-18-4-5-9-9-15-12-6-2-14-3-26-3l-12 0 0-52z m34 104l-17 0 0-37 18 0c7 0 13 2 16 5 4 3 6 8 6 14 0 12-7 18-23 18z m120-45l40 0 0-51c-15-6-29-9-44-9-19 0-35 6-47 17-12 12-18 26-18 43 0 17 6 32 19 44 12 12 27 18 46 18 6 0 13-1 19-2 6-2 13-5 22-8l0-18c-14 8-28 13-42 13-13 0-24-5-33-14-9-9-13-19-13-32 0-14 4-25 13-33 9-9 21-13 35-13 7 0 15 1 24 4l2 1 0 25-23 0 0 15z"/>
<glyph unicode="" d="M336 88l0-35c0-20-16-36-35-36l-266 0c-19 0-35 16-35 36l0 406c0 20 16 36 36 36l176 0 0-106c0-20 16-36 36-36l88 0 0-35-159 0c-29 0-53-24-53-53l0-124c0-29 23-53 53-53z m-106 407l0-106c0-10 8-18 18-18l88 0z m-53-195c-20 0-35-16-35-35l0-124c0-19 15-35 35-35l301 0c19 0 35 16 35 35l0 124c0 20-16 35-35 35z m85-100l39 0 0-49c-14-6-28-9-42-9-19 0-35 5-46 16-12 12-18 26-18 42 0 17 6 32 18 43 12 12 27 18 45 18 7 0 13-1 19-2 6-2 13-4 22-8l0-17c-14 8-28 12-41 12-13 0-24-4-32-13-9-9-13-19-13-32 0-13 4-24 13-32 8-9 20-13 33-13 7 0 15 2 24 5l2 0 0 24-23 0z m64 59l17 0 0-116-17 0z m43 0l62 0 0-15-46 0 0-32 46 0 0-15-46 0 0-54-16 0z"/>
<glyph unicode="" d="M336 88l0-35c0-20-16-36-35-36l-266 0c-19 0-35 16-35 36l0 406c0 20 16 36 36 36l176 0 0-106c0-20 16-36 36-36l88 0 0-35-159 0c-29 0-53-24-53-53l0-124c0-29 23-53 53-53z m-106 407l0-106c0-10 8-18 18-18l88 0z m-53-195c-20 0-35-16-35-35l0-124c0-19 15-35 35-35l301 0c19 0 35 16 35 35l0 124c0 20-16 35-35 35z m46-157l-39 0 0 116 30 0c10 0 18-1 23-4 5-2 9-6 12-10 3-5 5-10 5-16 0-11-6-20-18-25 8-1 15-5 20-10 5-5 8-12 8-19 0-6-2-12-5-16-3-5-8-9-13-12-6-3-14-4-23-4z m-8 101l-14 0 0-35 11 0c9 0 15 2 19 6 3 3 5 7 5 13 0 11-7 16-21 16z m1-49l-15 0 0-37 16 0c9 0 15 0 19 2 3 1 5 3 7 6 2 3 3 7 3 10 0 4-1 7-3 10-2 3-5 5-9 6-3 2-10 3-18 3z m157 64l15 0 0-116-17 0 0 90-35-45-3 0-37 45 0-90-16 0 0 116 15 0 39-48z m39-116l0 116 37 0c11 0 20-3 27-9 6-6 10-14 10-24 0-6-2-12-5-18-4-5-8-9-14-11-6-2-15-4-26-4l-12 0 0-50z m34 102l-17 0 0-37 18 0c7 0 12 2 16 5 4 3 6 8 6 14 0 12-8 18-23 18z"/>
<glyph unicode="" d="M336 88l0-35c0-20-16-36-35-36l-266 0c-19 0-35 16-35 36l0 406c0 20 16 36 36 36l176 0 0-106c0-20 16-36 36-36l88 0 0-35-159 0c-29 0-53-24-53-53l0-124c0-29 23-53 53-53z m-106 407l0-106c0-10 8-18 18-18l88 0z m-53-195c-20 0-35-16-35-35l0-124c0-19 15-35 35-35l301 0c19 0 35 16 35 35l0 124c0 20-16 35-35 35z m-3-41l97 0 0-14-40 0 0-102-17 0 0 102-40 0z m197 0l20 0-46-56 50-60-20 0-40 48-40-48-20 0 50 60-47 56 20 0 37-44z m27 0l97 0 0-14-40 0 0-102-17 0 0 102-40 0z"/>
<glyph unicode="" d="M303 512l-189 0c-21 0-38-17-38-38l0-435c0-21 17-38 38-38l284 0c21 0 38 17 38 38l0 322-95 0c-21 0-38 16-38 37z m19 0l0-114c0-10 9-19 19-19l95 0z"/>
<glyph unicode="" d="M247 258c-2 2-6 3-9 3-4 0-7-1-10-3l-4-5 10-11c7-6 7-17 0-23-3-3-7-5-11-5-5 0-9 2-12 5l-11 11-4-5c-3-2-4-6-4-9 0-4 1-7 4-10l62-62c2-2 6-4 9-4 4 0 7 2 10 4l4 5-10 10c-7 7-7 17 0 24 3 3 7 4 11 4 4 0 9-1 12-4l11-11 4 4c3 3 4 6 4 10 0 4-1 7-4 9z m56 140l0 114-189 0c-21 0-38-17-38-38l0-435c0-21 17-38 38-38l284 0c21 0 38 17 38 38l0 322-95 0c-21 0-38 16-38 37z m50-275c7-6 7-17 0-23-6-7-16-7-23 0l-25 25-5-4c-17-18-48-18-65 0l-62 62c-9 9-14 20-14 33 0 12 5 24 14 32l4 5-26 26c-6 6-6 16 0 23 4 3 8 5 12 5 4 0 8-2 12-5l25-26 5 5c9 8 20 13 33 13 12 0 24-5 32-13l62-62c9-9 14-21 14-33 0-12-5-24-14-33l-4-4z m-12 256l95 0-114 133 0-114c0-10 9-19 19-19z"/>
<glyph unicode="" d="M336 88l0-35c0-20-16-36-35-36l-266 0c-19 0-35 16-35 36l0 406c0 20 16 36 36 36l176 0 0-106c0-20 16-36 36-36l88 0 0-35-159 0c-29 0-53-24-53-53l0-124c0-29 23-53 53-53z m-106 407l0-106c0-10 8-18 18-18l88 0z m-53-195c-20 0-35-16-35-35l0-124c0-19 15-35 35-35l301 0c19 0 35 16 35 35l0 124c0 20-16 35-35 35z m6-157l0 116 37 0c11 0 20-3 27-9 6-6 9-14 9-24 0-6-1-12-5-18-3-5-8-9-14-11-5-2-14-4-25-4l-12 0 0-50z m34 102l-17 0 0-37 18 0c7 0 12 2 16 5 3 3 5 8 5 14 0 12-7 18-22 18z m134 14l15 0 0-116-14 0-78 90 0-90-15 0 0 116 13 0 79-90z m91-59l39 0 0-49c-15-6-29-9-43-9-19 0-35 5-46 16-12 12-18 26-18 42 0 17 6 32 18 43 12 12 27 18 45 18 7 0 13-1 19-2 6-2 13-4 22-8l0-17c-14 8-27 12-41 12-13 0-24-4-32-13-9-9-13-19-13-32 0-13 4-24 13-32 8-9 20-13 33-13 7 0 15 2 24 5l2 0 0 24-22 0 0 15z"/>
<glyph unicode="" d="M256 512c-142 0-256-114-256-256 0-141 114-255 256-255 141 0 255 114 255 255 0 142-114 256-255 256z m23-373c-1-20-16-33-35-32-19 0-34 14-33 34 0 21 16 33 34 33 20-1 34-15 34-35z m55 145c-5-6-15-15-29-25l-15-11c-7-5-12-12-14-20-1-3-2-14-2-21 0-1-1-4-5-4-5 0-40 0-45 0-5 0-5 2-5 4 0 19 3 34 11 47 11 17 41 35 41 35 4 3 8 7 10 11 5 7 10 14 10 22 0 10-3 19-9 26-7 9-14 13-29 13-15 0-23-7-29-16-6-10-5-21-5-32l-56 0c0 39 10 64 32 79 14 10 33 14 54 14 29 0 51-5 71-20 18-14 28-34 28-60 0-17-6-31-14-42z"/>
<glyph unicode="~" d="M144 255c29 0 56-12 76-32 20-20 31-47 31-76l44 0c0 84-68 152-151 152z m0 77c102 0 185-83 185-185l44 0c0 127-103 229-229 229z m61-154c0-17-14-31-30-31-17 0-31 14-31 31 0 17 14 30 31 30 16 0 30-13 30-30z m51 334c-141 0-256-115-256-256 0-141 115-256 256-256 141 0 256 115 256 256 0 141-115 256-256 256z m0-34c122 0 222-100 222-222 0-122-100-222-222-222-122 0-222 100-222 222 0 122 100 222 222 222z"/>
<glyph unicode="" d="M256 512c-141 0-256-115-256-256 0-140 115-255 256-255 140 0 255 115 255 255 0 141-115 256-255 256z m0-460c-113 0-205 92-205 204 0 113 92 205 205 205 112 0 204-92 204-205 0-112-92-204-204-204z m-13 191c-24 23-46 51-36 61 16 16 29 25 2 59-27 34-46 8-61-7-17-17-1-81 63-145 64-64 128-80 145-63 15 15 41 34 7 61-34 27-43 14-59-2-10-10-38 12-61 36z"/>
<glyph unicode="" d="M256 512c-141 0-256-115-256-256 0-141 115-256 256-256 141 0 256 115 256 256 0 141-115 256-256 256z m0-34c122 0 222-100 222-222 0-122-100-222-222-222-122 0-222 100-222 222 0 122 100 222 222 222z m87-131l-12-18c22-17 36-44 36-75 0-30-14-57-36-75l12-17c27 21 45 55 45 92 0 38-18 72-45 93z m-24-36l-12-18c10-9 17-23 17-39 0-15-7-29-17-39l12-18c16 14 26 34 26 57 0 23-10 44-26 57z m-60 61c-12 0-16-7-16-7 0 0-33-36-56-52-4-3-8-5-16-5l-19 0c-12 0-21-10-21-21l0-65c0-12 9-21 21-21l19 0c8 0 12-3 16-5 23-16 56-52 56-52 0 0 4-8 16-8 12 0 22 10 22 22l0 193c0 12-10 21-22 21z"/>
</font>
</defs>
</svg>
